999
FreeCAD v0.19 
  0
SECTION
  2
HEADER
  9
$ACADVER
  1
AC1014
  9
$ACADMAINTVER
 70
     9
  9
$DWGCODEPAGE
  3
ANSI_1252
  9
$TEXTSTYLE
  7
STANDARD
  9
$DIMSTYLE
  2
STANDARD
  9
$DIMTXSTY
  7
STANDARD
  9
$CMLSTYLE
  2
STANDARD
  9
$PEXTMAX
 10
50
 20
50
 30
50
  9
$PEXTMIN
 10
0
 20
0
 30
0
  9
$HANDSEED
  5
FFFF
  0
ENDSEC
  0
SECTION
  2
CLASSES
  0
CLASS
  1
ACDBDICTIONARYWDFLT
  2
AcDbDictionaryWithDefault
  3
ObjectDBX Classes
 90
        0
280
     0
281
     0
  0
CLASS
  1
XRECORD
  2
AcDbXrecord
  3
ObjectDBX Classes
 90
        0
280
     0
281
     0
  0
CLASS
  1
LWPOLYLINE
  2
AcDbPolyline
  3
ObjectDBX Classes
 90
        0
280
     0
281
     1
  0
ENDSEC
  0
SECTION
  2
TABLES
  0
TABLE
  2
VPORT
  5
20
330
0
100
AcDbSymbolTable
 70
     1
  0
VPORT
  5
21
330
20
100
AcDbSymbolTableRecord
100
AcDbViewportTableRecord
  2
*ACTIVE
 70
     0
  0
ENDTAB
  0
TABLE
  2
LTYPE
  5
22
330
0
100
AcDbSymbolTable
 70
     1
  0
LTYPE
  5
23
330
21
100
AcDbSymbolTableRecord
100
AcDbLinetypeTableRecord
  2
BYBLOCK
 70
     0
  3

 72
    65
 73
     0
 40
0.0
  0
LTYPE
  5
24
330
21
100
AcDbSymbolTableRecord
100
AcDbLinetypeTableRecord
  2
BYLAYER
 70
     0
  3

 72
    65
 73
     0
 40
0.0
  0
LTYPE
  5
25
330
21
100
AcDbSymbolTableRecord
100
AcDbLinetypeTableRecord
  2
CONTINUOUS
 70
     0
  3
Solid line
 72
    65
 73
     0
 40
0.0
  0
ENDTAB
  0
TABLE
  2
LAYER
  5
A2B
330
0
100
AcDbSymbolTable
 70
2
  0
LAYER
  5
A2C
330
A2B
100
AcDbSymbolTableRecord
100
AcDbLayerTableRecord
  2
0
 70
   0
 62
   7
  6
CONTINUOUS
  0
LAYER
  5
A2D
330
A2B
100
AcDbSymbolTableRecord
100
AcDbLayerTableRecord
  2
View
 70
    0
 62
    7
  6
CONTINUOUS
  0
ENDTAB
  0
TABLE
  2
STYLE
  5
70
330
0
100
AcDbSymbolTable
 70
     2
  0
STYLE
  5
71
330
70
100
AcDbSymbolTableRecord
100
AcDbTextStyleTableRecord
  2
STANDARD
 70
     0
 40
0.0
 41
1.0
 50
0.0
 71
     0
 42
2.5
  3
arial.ttf
  4

  0
STYLE
  5
72
330
70
100
AcDbSymbolTableRecord
100
AcDbTextStyleTableRecord
  2
ANNOTATIVE
 70
     0
 40
0.0
 41
1.0
 50
0.0
 71
     0
 42
2.5
  3
arial.ttf
  4

  0
ENDTAB
  0
TABLE
  2
VIEW
  5
73
330
0
100
AcDbSymbolTable
 70
     0
  0
ENDTAB
  0
TABLE
  2
UCS
  5
74
330
0
100
AcDbSymbolTable
 70
     0
  0
ENDTAB
  0
TABLE
  2
APPID
  5
75
330
0
100
AcDbSymbolTable
 70
     2
  0
APPID
  5
76
330
75
100
AcDbSymbolTableRecord
100
AcDbRegAppTableRecord
  2
ACAD
 70
     0
  0
APPID
  5
77
330
75
100
AcDbSymbolTableRecord
100
AcDbRegAppTableRecord
  2
ACADANNOTATIVE
 70
     0
  0
ENDTAB
  0
TABLE
  2
DIMSTYLE
  5
78
330
0
100
AcDbSymbolTable
 70
     2
  0
DIMSTYLE
105
79
330
78
100
AcDbSymbolTableRecord
100
AcDbDimStyleTableRecord
  2
STANDARD
 70
     0
  3

  4

  5

  6

  7

 40
0.0
 41
2.5
 42
0.625
 43
3.75
 44
1.25
 45
0.0
 46
0.0
 47
0.0
 48
0.0
140
2.5
141
2.5
142
0.0
143
0.03937007874016
144
1.0
145
0.0
146
1.0
147
0.625
 71
     0
 72
     0
 73
     0
 74
     0
 75
     0
 76
     0
 77
     1
 78
     8
170
     0
171
     3
172
     1
173
     0
174
     0
175
     0
176
     0
177
     0
178
     0
270
     2
271
     2
272
     2
273
     2
274
     3
340
71
275
     0
280
     0
281
     0
282
     0
283
     0
284
     8
285
     0
286
     0
287
     3
288
     0
  0
ENDTAB
  0
TABLE
  2
BLOCK_RECORD
  5
A01
330
0
100
AcDbSymbolTable
  70
5
  0
BLOCK_RECORD
  5
A02
330
A01
100
AcDbSymbolTableRecord
100
AcDbBlockTableRecord
  2
*MODEL_SPACE
  0
BLOCK_RECORD
  5
A03
330
A01
100
AcDbSymbolTableRecord
100
AcDbBlockTableRecord
  2
*PAPER_SPACE
  0
ENDTAB
  0
ENDSEC
  0
SECTION
  2
BLOCKS
  0
BLOCK
  5
A04
330
A02
100
AcDbEntity
  8
0
100
AcDbBlockBegin
  2
*MODEL_SPACE
 70
   0
 10
0
 20
0
 30
0
  3
*MODEL_SPACE
  1
 
  0
ENDBLK
  5
A05
330
A02
100
AcDbEntity
  8
0
100
AcDbBlockEnd
  0
BLOCK
  5
A06
330
A03
100
AcDbEntity
 67
1
  8
0
100
AcDbBlockBegin
  2
*PAPER_SPACE
 70
   0
 10
0
 20
0
 30
0
  3
*PAPER_SPACE
  1
 
  0
ENDBLK
  5
A07
330
A03
100
AcDbEntity
 67
    1
  8
0
100
AcDbBlockEnd
  0
ENDSEC
  0
SECTION
  2
ENTITIES
  0
SPLINE
  5
A08
330
A02
100
AcDbEntity
  8
View
100
AcDbSpline
210
0
220
0
230
1
 70
8
 71
3
 72
11
 73
7
 74
0
 40
0.00143961
 40
0.00143961
 40
0.00143961
 40
0.00143961
 40
0.00578488
 40
0.00578488
 40
0.00578488
 40
0.0101301
 40
0.0101301
 40
0.0101301
 40
0.0101301
 10
152.774
 20
109.881
 30
0
 10
151.368
 20
109.562
 30
0
 10
149.919
 20
109.403
 30
0
 10
148.486
 20
109.403
 30
0
 10
147.053
 20
109.403
 30
0
 10
145.633
 20
109.562
 30
0
 10
144.226
 20
109.881
 30
0
  0
SPLINE
  5
A09
330
A02
100
AcDbEntity
  8
View
100
AcDbSpline
210
0
220
0
230
1
 70
8
 71
3
 72
11
 73
7
 74
0
 40
0
 40
0
 40
0
 40
0
 40
0.00119369
 40
0.00119369
 40
0.00119369
 40
0.00238737
 40
0.00238737
 40
0.00238737
 40
0.00238737
 10
152.774
 20
109.881
 30
0
 10
153.161
 20
109.969
 30
0
 10
153.529
 20
110.042
 30
0
 10
153.789
 20
110.074
 30
0
 10
154.05
 20
110.105
 30
0
 10
154.203
 20
110.095
 30
0
 10
154.22
 20
110.039
 30
0
  0
SPLINE
  5
A0A
330
A02
100
AcDbEntity
  8
View
100
AcDbSpline
210
0
220
0
230
1
 70
8
 71
3
 72
11
 73
7
 74
0
 40
0
 40
0
 40
0
 40
0
 40
0.00124483
 40
0.00124483
 40
0.00124483
 40
0.00248965
 40
0.00248965
 40
0.00248965
 40
0.00248965
 10
154.642
 20
108.569
 30
0
 10
154.659
 20
108.51
 30
0
 10
154.529
 20
108.402
 30
0
 10
154.275
 20
108.281
 30
0
 10
154.021
 20
108.159
 30
0
 10
153.642
 20
108.024
 30
0
 10
153.236
 20
107.926
 30
0
  0
SPLINE
  5
A0B
330
A02
100
AcDbEntity
  8
View
100
AcDbSpline
210
0
220
0
230
1
 70
8
 71
3
 72
11
 73
7
 74
0
 40
0.00153129
 40
0.00153129
 40
0.00153129
 40
0.00153129
 40
0.00634316
 40
0.00634316
 40
0.00634316
 40
0.011155
 40
0.011155
 40
0.011155
 40
0.011155
 10
143.764
 20
107.926
 30
0
 10
145.32
 20
107.55
 30
0
 10
146.92
 20
107.362
 30
0
 10
148.509
 20
107.362
 30
0
 10
150.101
 20
107.361
 30
0
 10
151.676
 20
107.549
 30
0
 10
153.236
 20
107.926
 30
0
  0
SPLINE
  5
A0C
330
A02
100
AcDbEntity
  8
View
100
AcDbSpline
210
0
220
0
230
1
 70
8
 71
3
 72
11
 73
7
 74
0
 40
0
 40
0
 40
0
 40
0
 40
0.00125103
 40
0.00125103
 40
0.00125103
 40
0.00250207
 40
0.00250207
 40
0.00250207
 40
0.00250207
 10
143.764
 20
107.926
 30
0
 10
143.357
 20
108.024
 30
0
 10
142.978
 20
108.16
 30
0
 10
142.724
 20
108.281
 30
0
 10
142.47
 20
108.402
 30
0
 10
142.341
 20
108.51
 30
0
 10
142.358
 20
108.569
 30
0
  0
SPLINE
  5
A0D
330
A02
100
AcDbEntity
  8
View
100
AcDbSpline
210
0
220
0
230
1
 70
8
 71
3
 72
11
 73
7
 74
0
 40
0
 40
0
 40
0
 40
0
 40
0.00119078
 40
0.00119078
 40
0.00119078
 40
0.00238155
 40
0.00238155
 40
0.00238155
 40
0.00238155
 10
142.78
 20
110.039
 30
0
 10
142.797
 20
110.095
 30
0
 10
142.951
 20
110.105
 30
0
 10
143.211
 20
110.074
 30
0
 10
143.472
 20
110.042
 30
0
 10
143.839
 20
109.969
 30
0
 10
144.226
 20
109.881
 30
0
  0
LINE
  5
A0E
330
A02
100
AcDbEntity
  8
View
100
AcDbLine
 10
155.472
 20
100.106
 30
0
 11
141.528
 21
100.106
 31
0
  0
LINE
  5
A0F
330
A02
100
AcDbEntity
  8
View
100
AcDbLine
 10
141
 20
100.106
 30
0
 11
141.528
 21
100.106
 31
0
  0
LINE
  5
A10
330
A02
100
AcDbEntity
  8
View
100
AcDbLine
 10
155.472
 20
100.106
 30
0
 11
156
 21
100.106
 31
0
  0
SPLINE
  5
A11
330
A02
100
AcDbEntity
  8
View
100
AcDbSpline
210
0
220
0
230
1
 70
8
 71
2
 72
30
 73
27
 74
0
 40
2.65679
 40
2.65679
 40
2.65679
 40
2.74879
 40
2.74879
 40
2.93278
 40
2.93278
 40
3.02477
 40
3.02477
 40
3.11677
 40
3.11677
 40
3.20876
 40
3.20876
 40
3.30076
 40
3.30076
 40
3.39275
 40
3.39275
 40
3.48475
 40
3.48475
 40
3.57674
 40
3.57674
 40
3.66874
 40
3.66874
 40
3.76073
 40
3.76073
 40
3.85273
 40
3.85273
 40
3.94472
 40
3.94472
 40
3.94472
 10
141
 20
100.106
 30
0
 10
140.909
 20
100.106
 30
0
 10
140.819
 20
100.106
 30
0
 10
140.642
 20
100.106
 30
0
 10
140.478
 20
100.106
 30
0
 10
140.399
 20
100.106
 30
0
 10
140.32
 20
100.106
 30
0
 10
140.247
 20
100.106
 30
0
 10
140.173
 20
100.106
 30
0
 10
140.106
 20
100.106
 30
0
 10
140.039
 20
100.106
 30
0
 10
139.978
 20
100.106
 30
0
 10
139.917
 20
100.106
 30
0
 10
139.863
 20
100.106
 30
0
 10
139.809
 20
100.106
 30
0
 10
139.763
 20
100.106
 30
0
 10
139.716
 20
100.106
 30
0
 10
139.678
 20
100.106
 30
0
 10
139.639
 20
100.106
 30
0
 10
139.609
 20
100.106
 30
0
 10
139.579
 20
100.106
 30
0
 10
139.557
 20
100.106
 30
0
 10
139.535
 20
100.106
 30
0
 10
139.522
 20
100.106
 30
0
 10
139.509
 20
100.106
 30
0
 10
139.504
 20
100.106
 30
0
 10
139.5
 20
100.106
 30
0
  0
SPLINE
  5
A12
330
A02
100
AcDbEntity
  8
View
100
AcDbSpline
210
0
220
0
230
1
 70
8
 71
2
 72
30
 73
27
 74
0
 40
5.48005
 40
5.48005
 40
5.48005
 40
5.57205
 40
5.57205
 40
5.66404
 40
5.66404
 40
5.75604
 40
5.75604
 40
5.84803
 40
5.84803
 40
5.94003
 40
5.94003
 40
6.03202
 40
6.03202
 40
6.12402
 40
6.12402
 40
6.21601
 40
6.21601
 40
6.30801
 40
6.30801
 40
6.4
 40
6.4
 40
6.492
 40
6.492
 40
6.58399
 40
6.58399
 40
6.76798
 40
6.76798
 40
6.76798
 10
157.5
 20
100.106
 30
0
 10
157.496
 20
100.106
 30
0
 10
157.491
 20
100.106
 30
0
 10
157.478
 20
100.106
 30
0
 10
157.465
 20
100.106
 30
0
 10
157.443
 20
100.106
 30
0
 10
157.421
 20
100.106
 30
0
 10
157.391
 20
100.106
 30
0
 10
157.361
 20
100.106
 30
0
 10
157.322
 20
100.106
 30
0
 10
157.284
 20
100.106
 30
0
 10
157.237
 20
100.106
 30
0
 10
157.191
 20
100.106
 30
0
 10
157.137
 20
100.106
 30
0
 10
157.083
 20
100.106
 30
0
 10
157.022
 20
100.106
 30
0
 10
156.961
 20
100.106
 30
0
 10
156.894
 20
100.106
 30
0
 10
156.827
 20
100.106
 30
0
 10
156.753
 20
100.106
 30
0
 10
156.68
 20
100.106
 30
0
 10
156.601
 20
100.106
 30
0
 10
156.522
 20
100.106
 30
0
 10
156.439
 20
100.106
 30
0
 10
156.356
 20
100.106
 30
0
 10
156.183
 20
100.106
 30
0
 10
156
 20
100.106
 30
0
  0
SPLINE
  5
A13
330
A02
100
AcDbEntity
  8
View
100
AcDbSpline
210
0
220
0
230
1
 70
8
 71
2
 72
30
 73
27
 74
0
 40
1.89578
 40
1.89578
 40
1.89578
 40
2.00617
 40
2.00617
 40
2.22693
 40
2.22693
 40
2.33731
 40
2.33731
 40
2.4477
 40
2.4477
 40
2.55808
 40
2.55808
 40
2.66846
 40
2.66846
 40
2.77884
 40
2.77884
 40
2.88923
 40
2.88923
 40
2.99961
 40
2.99961
 40
3.10999
 40
3.10999
 40
3.22037
 40
3.22037
 40
3.33076
 40
3.33076
 40
3.44114
 40
3.44114
 40
3.44114
 10
155.472
 20
100.106
 30
0
 10
155.587
 20
100.106
 30
0
 10
155.701
 20
100.106
 30
0
 10
155.928
 20
100.106
 30
0
 10
156.146
 20
100.106
 30
0
 10
156.251
 20
100.106
 30
0
 10
156.356
 20
100.106
 30
0
 10
156.455
 20
100.106
 30
0
 10
156.555
 20
100.106
 30
0
 10
156.648
 20
100.106
 30
0
 10
156.74
 20
100.106
 30
0
 10
156.825
 20
100.106
 30
0
 10
156.909
 20
100.106
 30
0
 10
156.985
 20
100.106
 30
0
 10
157.06
 20
100.106
 30
0
 10
157.126
 20
100.106
 30
0
 10
157.191
 20
100.106
 30
0
 10
157.246
 20
100.106
 30
0
 10
157.3
 20
100.106
 30
0
 10
157.344
 20
100.106
 30
0
 10
157.387
 20
100.106
 30
0
 10
157.418
 20
100.106
 30
0
 10
157.45
 20
100.106
 30
0
 10
157.468
 20
100.106
 30
0
 10
157.487
 20
100.106
 30
0
 10
157.494
 20
100.106
 30
0
 10
157.5
 20
100.106
 30
0
  0
SPLINE
  5
A14
330
A02
100
AcDbEntity
  8
View
100
AcDbSpline
210
0
220
0
230
1
 70
8
 71
2
 72
30
 73
27
 74
0
 40
5.98364
 40
5.98364
 40
5.98364
 40
6.09402
 40
6.09402
 40
6.2044
 40
6.2044
 40
6.31479
 40
6.31479
 40
6.42517
 40
6.42517
 40
6.53555
 40
6.53555
 40
6.64593
 40
6.64593
 40
6.75632
 40
6.75632
 40
6.8667
 40
6.8667
 40
6.97708
 40
6.97708
 40
7.08746
 40
7.08746
 40
7.19785
 40
7.19785
 40
7.30823
 40
7.30823
 40
7.52899
 40
7.52899
 40
7.52899
 10
139.5
 20
100.106
 30
0
 10
139.506
 20
100.106
 30
0
 10
139.513
 20
100.106
 30
0
 10
139.532
 20
100.106
 30
0
 10
139.55
 20
100.106
 30
0
 10
139.582
 20
100.106
 30
0
 10
139.613
 20
100.106
 30
0
 10
139.656
 20
100.106
 30
0
 10
139.7
 20
100.106
 30
0
 10
139.754
 20
100.106
 30
0
 10
139.809
 20
100.106
 30
0
 10
139.874
 20
100.106
 30
0
 10
139.94
 20
100.106
 30
0
 10
140.015
 20
100.106
 30
0
 10
140.091
 20
100.106
 30
0
 10
140.175
 20
100.106
 30
0
 10
140.26
 20
100.106
 30
0
 10
140.352
 20
100.106
 30
0
 10
140.445
 20
100.106
 30
0
 10
140.545
 20
100.106
 30
0
 10
140.644
 20
100.106
 30
0
 10
140.749
 20
100.106
 30
0
 10
140.854
 20
100.106
 30
0
 10
140.964
 20
100.106
 30
0
 10
141.074
 20
100.106
 30
0
 10
141.298
 20
100.106
 30
0
 10
141.528
 20
100.106
 30
0
  0
SPLINE
  5
A15
330
A02
100
AcDbEntity
  8
View
100
AcDbSpline
210
0
220
0
230
1
 70
8
 71
1
 72
4
 73
2
 74
0
 40
0.00200591
 40
0.00200591
 40
0.0123468
 40
0.0123468
 10
141.853
 20
108.303
 30
0
 10
142.275
 20
109.772
 30
0
  0
LINE
  5
A16
330
A02
100
AcDbEntity
  8
View
100
AcDbLine
 10
141.853
 20
108.303
 30
0
 11
139.5
 21
100.106
 31
0
  0
SPLINE
  5
A17
330
A02
100
AcDbEntity
  8
View
100
AcDbSpline
210
0
220
0
230
1
 70
8
 71
1
 72
4
 73
2
 74
0
 40
0.00185841
 40
0.00185841
 40
0.0121993
 40
0.0121993
 10
154.725
 20
109.772
 30
0
 10
155.147
 20
108.303
 30
0
  0
LINE
  5
A18
330
A02
100
AcDbEntity
  8
View
100
AcDbLine
 10
155.147
 20
108.303
 30
0
 11
157.5
 21
100.106
 31
0
  0
ELLIPSE
  5
A19
330
A02
100
AcDbEntity
  8
View
100
AcDbEllipse
 10
154.341
 20
109.662
 30
0
 11
-0.384475
 21
-0.110359
 31
0
 40
0.989005
 41
3.14159
 42
4.74388
  0
ELLIPSE
  5
A1A
330
A02
100
AcDbEntity
  8
View
100
AcDbEllipse
 10
154.763
 20
108.192
 30
0
 11
0.384475
 21
0.110359
 31
0
 40
0.989006
 41
-1.24345e-14
 42
-4.68323
  0
ELLIPSE
  5
A1B
330
A02
100
AcDbEntity
  8
View
100
AcDbEllipse
 10
142.659
 20
109.662
 30
0
 11
-0.384475
 21
0.110359
 31
0
 40
0.989005
 41
4.6809
 42
6.28319
  0
ELLIPSE
  5
A1C
330
A02
100
AcDbEntity
  8
View
100
AcDbEllipse
 10
142.237
 20
108.192
 30
0
 11
0.384475
 21
-0.110359
 31
0
 40
0.989006
 41
-4.74154
 42
-3.14159
  0
SPLINE
  5
A1D
330
A02
100
AcDbEntity
  8
View
100
AcDbSpline
210
0
220
0
230
1
 70
8
 71
3
 72
11
 73
7
 74
0
 40
9.22018e-18
 40
9.22018e-18
 40
9.22018e-18
 40
9.22018e-18
 40
0.00155209
 40
0.00155209
 40
0.00155209
 40
0.00310417
 40
0.00310417
 40
0.00310417
 40
0.00310417
 10
153.327
 20
107.578
 30
0
 10
153.836
 20
107.705
 30
0
 10
154.318
 20
107.864
 30
0
 10
154.65
 20
108.001
 30
0
 10
154.981
 20
108.137
 30
0
 10
155.162
 20
108.251
 30
0
 10
155.147
 20
108.303
 30
0
  0
SPLINE
  5
A1E
330
A02
100
AcDbEntity
  8
View
100
AcDbSpline
210
0
220
0
230
1
 70
8
 71
3
 72
11
 73
7
 74
0
 40
0
 40
0
 40
0
 40
0
 40
0.00155162
 40
0.00155162
 40
0.00155162
 40
0.00310323
 40
0.00310323
 40
0.00310323
 40
0.00310323
 10
141.853
 20
108.303
 30
0
 10
141.838
 20
108.251
 30
0
 10
142.018
 20
108.138
 30
0
 10
142.349
 20
108.001
 30
0
 10
142.681
 20
107.865
 30
0
 10
143.163
 20
107.705
 30
0
 10
143.673
 20
107.578
 30
0
  0
SPLINE
  5
A1F
330
A02
100
AcDbEntity
  8
View
100
AcDbSpline
210
0
220
0
230
1
 70
8
 71
3
 72
8
 73
4
 74
0
 40
0
 40
0
 40
0
 40
0
 40
1
 40
1
 40
1
 40
1
 10
144.223
 20
109.887
 30
0
 10
147.022
 20
109.25
 30
0
 10
149.978
 20
109.25
 30
0
 10
152.777
 20
109.887
 30
0
  0
SPLINE
  5
A20
330
A02
100
AcDbEntity
  8
View
100
AcDbSpline
210
0
220
0
230
1
 70
8
 71
3
 72
26
 73
22
 74
0
 40
0
 40
0
 40
0
 40
0
 40
0.140857
 40
0.140857
 40
0.140857
 40
0.281713
 40
0.281713
 40
0.281713
 40
0.42257
 40
0.42257
 40
0.42257
 40
0.57743
 40
0.57743
 40
0.57743
 40
0.718287
 40
0.718287
 40
0.718287
 40
0.859143
 40
0.859143
 40
0.859143
 40
1
 40
1
 40
1
 40
1
 10
144.223
 20
109.887
 30
0
 10
144.062
 20
109.923
 30
0
 10
143.907
 20
109.957
 30
0
 10
143.756
 20
109.987
 30
0
 10
143.534
 20
110.033
 30
0
 10
143.337
 20
110.067
 30
0
 10
143.165
 20
110.089
 30
0
 10
143.079
 20
110.1
 30
0
 10
143
 20
110.108
 30
0
 10
142.929
 20
110.111
 30
0
 10
142.851
 20
110.115
 30
0
 10
142.778
 20
110.114
 30
0
 10
142.71
 20
110.106
 30
0
 10
142.663
 20
110.101
 30
0
 10
142.616
 20
110.09
 30
0
 10
142.569
 20
110.074
 30
0
 10
142.513
 20
110.055
 30
0
 10
142.461
 20
110.026
 30
0
 10
142.414
 20
109.987
 30
0
 10
142.346
 20
109.929
 30
0
 10
142.297
 20
109.851
 30
0
 10
142.275
 20
109.772
 30
0
  0
SPLINE
  5
A21
330
A02
100
AcDbEntity
  8
View
100
AcDbSpline
210
0
220
0
230
1
 70
8
 71
3
 72
26
 73
22
 74
0
 40
0
 40
0
 40
0
 40
0
 40
0.140138
 40
0.140138
 40
0.140138
 40
0.280276
 40
0.280276
 40
0.280276
 40
0.420414
 40
0.420414
 40
0.420414
 40
0.579586
 40
0.579586
 40
0.579586
 40
0.719724
 40
0.719724
 40
0.719724
 40
0.859862
 40
0.859862
 40
0.859862
 40
1
 40
1
 40
1
 40
1
 10
152.777
 20
109.887
 30
0
 10
152.897
 20
109.914
 30
0
 10
153.015
 20
109.94
 30
0
 10
153.13
 20
109.964
 30
0
 10
153.393
 20
110.019
 30
0
 10
153.634
 20
110.063
 30
0
 10
153.834
 20
110.089
 30
0
 10
153.917
 20
110.1
 30
0
 10
153.994
 20
110.107
 30
0
 10
154.063
 20
110.111
 30
0
 10
154.142
 20
110.116
 30
0
 10
154.215
 20
110.114
 30
0
 10
154.283
 20
110.107
 30
0
 10
154.332
 20
110.102
 30
0
 10
154.381
 20
110.091
 30
0
 10
154.43
 20
110.075
 30
0
 10
154.485
 20
110.056
 30
0
 10
154.536
 20
110.028
 30
0
 10
154.582
 20
109.99
 30
0
 10
154.653
 20
109.932
 30
0
 10
154.703
 20
109.853
 30
0
 10
154.725
 20
109.772
 30
0
  0
SPLINE
  5
A22
330
A02
100
AcDbEntity
  8
View
100
AcDbSpline
210
0
220
0
230
1
 70
8
 71
1
 72
4
 73
2
 74
0
 40
0.00160473
 40
0.00160473
 40
0.0119456
 40
0.0119456
 10
154.642
 20
108.569
 30
0
 10
154.22
 20
110.039
 30
0
  0
SPLINE
  5
A23
330
A02
100
AcDbEntity
  8
View
100
AcDbSpline
210
0
220
0
230
1
 70
8
 71
1
 72
4
 73
2
 74
0
 40
0.00148672
 40
0.00148672
 40
0.0118276
 40
0.0118276
 10
142.78
 20
110.039
 30
0
 10
142.358
 20
108.569
 30
0
  0
LINE
  5
A24
330
A02
100
AcDbEntity
  8
View
100
AcDbLine
 10
153.327
 20
107.578
 30
0
 11
155.472
 21
100.106
 31
0
  0
SPLINE
  5
A25
330
A02
100
AcDbEntity
  8
View
100
AcDbSpline
210
0
220
0
230
1
 70
8
 71
1
 72
17
 73
15
 74
0
 40
6.04616
 40
6.04616
 40
6.08002
 40
6.11388
 40
6.14774
 40
6.1816
 40
6.21546
 40
6.24932
 40
6.28319
 40
6.31705
 40
6.35091
 40
6.38477
 40
6.41863
 40
6.45249
 40
6.48635
 40
6.52022
 40
6.52022
 10
143.673
 20
107.578
 30
0
 10
144.352
 20
107.426
 30
0
 10
145.036
 20
107.297
 30
0
 10
145.724
 20
107.191
 30
0
 10
146.415
 20
107.109
 30
0
 10
147.109
 20
107.05
 30
0
 10
147.804
 20
107.015
 30
0
 10
148.5
 20
107.003
 30
0
 10
149.196
 20
107.015
 30
0
 10
149.891
 20
107.05
 30
0
 10
150.585
 20
107.109
 30
0
 10
151.276
 20
107.191
 30
0
 10
151.964
 20
107.297
 30
0
 10
152.648
 20
107.426
 30
0
 10
153.327
 20
107.578
 30
0
  0
LINE
  5
A26
330
A02
100
AcDbEntity
  8
View
100
AcDbLine
 10
143.673
 20
107.578
 30
0
 11
141.528
 21
100.106
 31
0
  0
ELLIPSE
  5
A27
330
A02
100
AcDbEntity
  8
View
100
AcDbEllipse
 10
144.135
 20
109.496
 30
0
 11
-0.0885665
 21
-0.390072
 31
0
 40
0.0715712
 41
-3.29033
 42
-3.13248
  0
ELLIPSE
  5
A28
330
A02
100
AcDbEntity
  8
View
100
AcDbEllipse
 10
152.865
 20
109.496
 30
0
 11
-0.0885665
 21
0.390072
 31
0
 40
0.0715712
 41
-0.0091159
 42
-6.13445
  0
ELLIPSE
  5
A29
330
A02
100
AcDbEntity
  8
View
100
AcDbEllipse
 10
153.327
 20
107.541
 30
0
 11
-0.0939351
 21
0.388814
 31
0
 40
0.0217391
 41
4.80213
 42
6.1348
  0
ELLIPSE
  5
A2A
330
A02
100
AcDbEntity
  8
View
100
AcDbEllipse
 10
143.673
 20
107.541
 30
0
 11
-0.0939351
 21
-0.388814
 31
0
 40
0.0217391
 41
3.28998
 42
4.62265
  0
ENDSEC
  0
SECTION
  2
OBJECTS
  0
DICTIONARY
  5
F000
330
0
100
AcDbDictionary
  3
ACAD_GROUP
350
F001
  0
DICTIONARY
  5
F001
330
F000
100
AcDbDictionary
  0
ENDSEC
  0
EOF